<?xml version="1.0" encoding="UTF-8" standalone="no"?>
<!DOCTYPE svg PUBLIC "-//W3C//DTD SVG 1.1//EN"
 "http://www.w3.org/Graphics/SVG/1.1/DTD/svg11.dtd">
<!-- Generated by graphviz version 3.0.0 (20220226.1711)
 -->
<!-- Title: dependencies Pages: 1 -->
<svg width="246pt" height="247pt"
 viewBox="0.00 0.00 246.00 246.80" xmlns="http://www.w3.org/2000/svg" xmlns:xlink="http://www.w3.org/1999/xlink">
<g id="graph0" class="graph" transform="scale(1 1) rotate(0) translate(4 242.8)">
<title>dependencies</title>
<polygon fill="white" stroke="transparent" points="-4,4 -4,-242.8 242,-242.8 242,4 -4,4"/>
<text text-anchor="middle" x="119" y="-8.2" font-family="sans-serif" font-size="14.00">dependencies</text>
<g id="clust1" class="cluster">
<title>cluster_EventsModule</title>
<polygon fill="none" stroke="black" stroke-dasharray="1,5" points="8,-32.8 8,-230.8 230,-230.8 230,-32.8 8,-32.8"/>
</g>
<g id="clust3" class="cluster">
<title>cluster_EventsModule_imports</title>
<polygon fill="none" stroke="black" points="16,-40.8 16,-92.8 222,-92.8 222,-40.8 16,-40.8"/>
</g>
<g id="clust4" class="cluster">
<title>cluster_EventsModule_exports</title>
<polygon fill="none" stroke="black" points="57,-170.8 57,-222.8 181,-222.8 181,-170.8 57,-170.8"/>
</g>
<!-- AuthModule -->
<g id="node1" class="node">
<title>AuthModule</title>
<polygon fill="#8dd3c7" stroke="black" points="213.55,-84.8 210.55,-88.8 189.55,-88.8 186.55,-84.8 126.45,-84.8 126.45,-48.8 213.55,-48.8 213.55,-84.8"/>
<text text-anchor="middle" x="170" y="-62.6" font-family="Times,serif" font-size="14.00">AuthModule</text>
</g>
<!-- EventsModule -->
<g id="node3" class="node">
<title>EventsModule</title>
<polygon fill="#8dd3c7" stroke="black" points="167.66,-149.8 164.66,-153.8 143.66,-153.8 140.66,-149.8 70.34,-149.8 70.34,-113.8 167.66,-113.8 167.66,-149.8"/>
<text text-anchor="middle" x="119" y="-127.6" font-family="Times,serif" font-size="14.00">EventsModule</text>
</g>
<!-- AuthModule&#45;&gt;EventsModule -->
<g id="edge1" class="edge">
<title>AuthModule&#45;&gt;EventsModule</title>
<path fill="none" stroke="black" d="M147.03,-84.91C147.03,-84.91 147.03,-103.79 147.03,-103.79"/>
<polygon fill="black" stroke="black" points="143.53,-103.79 147.03,-113.79 150.53,-103.79 143.53,-103.79"/>
</g>
<!-- CaslModule -->
<g id="node2" class="node">
<title>CaslModule</title>
<polygon fill="#8dd3c7" stroke="black" points="108.44,-84.8 105.44,-88.8 84.44,-88.8 81.44,-84.8 23.56,-84.8 23.56,-48.8 108.44,-48.8 108.44,-84.8"/>
<text text-anchor="middle" x="66" y="-62.6" font-family="Times,serif" font-size="14.00">CaslModule</text>
</g>
<!-- CaslModule&#45;&gt;EventsModule -->
<g id="edge2" class="edge">
<title>CaslModule&#45;&gt;EventsModule</title>
<path fill="none" stroke="black" d="M89.2,-84.91C89.2,-84.91 89.2,-103.79 89.2,-103.79"/>
<polygon fill="black" stroke="black" points="85.7,-103.79 89.2,-113.79 92.7,-103.79 85.7,-103.79"/>
</g>
<!-- EventsGateway  -->
<g id="node4" class="node">
<title>EventsGateway </title>
<polygon fill="#fb8072" stroke="black" points="172.86,-214.8 65.14,-214.8 65.14,-178.8 172.86,-178.8 172.86,-214.8"/>
<text text-anchor="middle" x="119" y="-192.6" font-family="Times,serif" font-size="14.00">EventsGateway </text>
</g>
<!-- EventsModule&#45;&gt;EventsGateway  -->
<g id="edge3" class="edge">
<title>EventsModule&#45;&gt;EventsGateway </title>
<path fill="none" stroke="black" stroke-dasharray="5,2" d="M119,-149.91C119,-149.91 119,-168.79 119,-168.79"/>
<polygon fill="black" stroke="black" points="115.5,-168.79 119,-178.79 122.5,-168.79 115.5,-168.79"/>
</g>
</g>
</svg>
