<?xml version="1.0" encoding="UTF-8" standalone="no"?>
<!DOCTYPE svg PUBLIC "-//W3C//DTD SVG 1.1//EN"
 "http://www.w3.org/Graphics/SVG/1.1/DTD/svg11.dtd">
<!-- Generated by graphviz version 3.0.0 (20220226.1711)
 -->
<!-- Title: dependencies Pages: 1 -->
<svg width="292pt" height="247pt"
 viewBox="0.00 0.00 292.00 246.80" xmlns="http://www.w3.org/2000/svg" xmlns:xlink="http://www.w3.org/1999/xlink">
<g id="graph0" class="graph" transform="scale(1 1) rotate(0) translate(4 242.8)">
<title>dependencies</title>
<polygon fill="white" stroke="transparent" points="-4,4 -4,-242.8 288,-242.8 288,4 -4,4"/>
<text text-anchor="middle" x="142" y="-8.2" font-family="sans-serif" font-size="14.00">dependencies</text>
<g id="clust1" class="cluster">
<title>cluster_CallsModule</title>
<polygon fill="none" stroke="black" stroke-dasharray="1,5" points="8,-32.8 8,-230.8 276,-230.8 276,-32.8 8,-32.8"/>
</g>
<g id="clust3" class="cluster">
<title>cluster_CallsModule_imports</title>
<polygon fill="none" stroke="black" points="160,-40.8 160,-92.8 268,-92.8 268,-40.8 160,-40.8"/>
</g>
<g id="clust4" class="cluster">
<title>cluster_CallsModule_exports</title>
<polygon fill="none" stroke="black" points="96,-170.8 96,-222.8 202,-222.8 202,-170.8 96,-170.8"/>
</g>
<g id="clust6" class="cluster">
<title>cluster_CallsModule_providers</title>
<polygon fill="none" stroke="black" points="16,-40.8 16,-92.8 152,-92.8 152,-40.8 16,-40.8"/>
</g>
<!-- UsersModule -->
<g id="node1" class="node">
<title>UsersModule</title>
<polygon fill="#8dd3c7" stroke="black" points="259.94,-84.8 256.94,-88.8 235.94,-88.8 232.94,-84.8 168.06,-84.8 168.06,-48.8 259.94,-48.8 259.94,-84.8"/>
<text text-anchor="middle" x="214" y="-62.6" font-family="Times,serif" font-size="14.00">UsersModule</text>
</g>
<!-- CallsModule -->
<g id="node2" class="node">
<title>CallsModule</title>
<polygon fill="#8dd3c7" stroke="black" points="193.33,-149.8 190.33,-153.8 169.33,-153.8 166.33,-149.8 104.67,-149.8 104.67,-113.8 193.33,-113.8 193.33,-149.8"/>
<text text-anchor="middle" x="149" y="-127.6" font-family="Times,serif" font-size="14.00">CallsModule</text>
</g>
<!-- UsersModule&#45;&gt;CallsModule -->
<g id="edge1" class="edge">
<title>UsersModule&#45;&gt;CallsModule</title>
<path fill="none" stroke="black" d="M180.72,-84.91C180.72,-84.91 180.72,-103.79 180.72,-103.79"/>
<polygon fill="black" stroke="black" points="177.22,-103.79 180.72,-113.79 184.22,-103.79 177.22,-103.79"/>
</g>
<!-- CallsService  -->
<g id="node3" class="node">
<title>CallsService </title>
<polygon fill="#fb8072" stroke="black" points="194.26,-214.8 103.74,-214.8 103.74,-178.8 194.26,-178.8 194.26,-214.8"/>
<text text-anchor="middle" x="149" y="-192.6" font-family="Times,serif" font-size="14.00">CallsService </text>
</g>
<!-- CallsModule&#45;&gt;CallsService  -->
<g id="edge2" class="edge">
<title>CallsModule&#45;&gt;CallsService </title>
<path fill="none" stroke="black" stroke-dasharray="5,2" d="M149,-149.91C149,-149.91 149,-168.79 149,-168.79"/>
<polygon fill="black" stroke="black" points="145.5,-168.79 149,-178.79 152.5,-168.79 145.5,-168.79"/>
</g>
<!-- CallsService -->
<g id="node4" class="node">
<title>CallsService</title>
<ellipse fill="#fdb462" stroke="black" cx="84" cy="-66.8" rx="59.69" ry="18"/>
<text text-anchor="middle" x="84" y="-62.6" font-family="Times,serif" font-size="14.00">CallsService</text>
</g>
<!-- CallsService&#45;&gt;CallsModule -->
<g id="edge3" class="edge">
<title>CallsService&#45;&gt;CallsModule</title>
<path fill="none" stroke="black" d="M124.34,-80.27C124.34,-80.27 124.34,-103.66 124.34,-103.66"/>
<polygon fill="black" stroke="black" points="120.84,-103.66 124.34,-113.66 127.84,-103.66 120.84,-103.66"/>
</g>
</g>
</svg>
