<?xml version="1.0" encoding="UTF-8" standalone="no"?>
<!DOCTYPE svg PUBLIC "-//W3C//DTD SVG 1.1//EN"
 "http://www.w3.org/Graphics/SVG/1.1/DTD/svg11.dtd">
<!-- Generated by graphviz version 3.0.0 (20220226.1711)
 -->
<!-- Title: dependencies Pages: 1 -->
<svg width="407pt" height="247pt"
 viewBox="0.00 0.00 407.00 246.80" xmlns="http://www.w3.org/2000/svg" xmlns:xlink="http://www.w3.org/1999/xlink">
<g id="graph0" class="graph" transform="scale(1 1) rotate(0) translate(4 242.8)">
<title>dependencies</title>
<polygon fill="white" stroke="transparent" points="-4,4 -4,-242.8 403,-242.8 403,4 -4,4"/>
<text text-anchor="middle" x="199.5" y="-8.2" font-family="sans-serif" font-size="14.00">dependencies</text>
<g id="clust1" class="cluster">
<title>cluster_RecordsModule</title>
<polygon fill="none" stroke="black" stroke-dasharray="1,5" points="8,-32.8 8,-230.8 391,-230.8 391,-32.8 8,-32.8"/>
</g>
<g id="clust4" class="cluster">
<title>cluster_RecordsModule_exports</title>
<polygon fill="none" stroke="black" points="101,-170.8 101,-222.8 225,-222.8 225,-170.8 101,-170.8"/>
</g>
<g id="clust6" class="cluster">
<title>cluster_RecordsModule_providers</title>
<polygon fill="none" stroke="black" points="223,-40.8 223,-92.8 383,-92.8 383,-40.8 223,-40.8"/>
</g>
<g id="clust3" class="cluster">
<title>cluster_RecordsModule_imports</title>
<polygon fill="none" stroke="black" points="16,-40.8 16,-92.8 215,-92.8 215,-40.8 16,-40.8"/>
</g>
<!-- CallsModule -->
<g id="node1" class="node">
<title>CallsModule</title>
<polygon fill="#8dd3c7" stroke="black" points="207.33,-84.8 204.33,-88.8 183.33,-88.8 180.33,-84.8 118.67,-84.8 118.67,-48.8 207.33,-48.8 207.33,-84.8"/>
<text text-anchor="middle" x="163" y="-62.6" font-family="Times,serif" font-size="14.00">CallsModule</text>
</g>
<!-- RecordsModule -->
<g id="node3" class="node">
<title>RecordsModule</title>
<polygon fill="#8dd3c7" stroke="black" points="215.93,-149.8 212.93,-153.8 191.93,-153.8 188.93,-149.8 110.07,-149.8 110.07,-113.8 215.93,-113.8 215.93,-149.8"/>
<text text-anchor="middle" x="163" y="-127.6" font-family="Times,serif" font-size="14.00">RecordsModule</text>
</g>
<!-- CallsModule&#45;&gt;RecordsModule -->
<g id="edge1" class="edge">
<title>CallsModule&#45;&gt;RecordsModule</title>
<path fill="none" stroke="black" d="M163,-84.91C163,-84.91 163,-103.79 163,-103.79"/>
<polygon fill="black" stroke="black" points="159.5,-103.79 163,-113.79 166.5,-103.79 159.5,-103.79"/>
</g>
<!-- SRModule -->
<g id="node2" class="node">
<title>SRModule</title>
<polygon fill="#8dd3c7" stroke="black" points="100.18,-84.8 97.18,-88.8 76.18,-88.8 73.18,-84.8 23.82,-84.8 23.82,-48.8 100.18,-48.8 100.18,-84.8"/>
<text text-anchor="middle" x="62" y="-62.6" font-family="Times,serif" font-size="14.00">SRModule</text>
</g>
<!-- SRModule&#45;&gt;RecordsModule -->
<g id="edge2" class="edge">
<title>SRModule&#45;&gt;RecordsModule</title>
<path fill="none" stroke="black" d="M100.2,-66.8C108.35,-66.8 114.56,-66.8 114.56,-66.8 114.56,-66.8 114.56,-103.69 114.56,-103.69"/>
<polygon fill="black" stroke="black" points="111.06,-103.69 114.56,-113.69 118.06,-103.69 111.06,-103.69"/>
</g>
<!-- RecordsService  -->
<g id="node4" class="node">
<title>RecordsService </title>
<polygon fill="#fb8072" stroke="black" points="216.86,-214.8 109.14,-214.8 109.14,-178.8 216.86,-178.8 216.86,-214.8"/>
<text text-anchor="middle" x="163" y="-192.6" font-family="Times,serif" font-size="14.00">RecordsService </text>
</g>
<!-- RecordsModule&#45;&gt;RecordsService  -->
<g id="edge3" class="edge">
<title>RecordsModule&#45;&gt;RecordsService </title>
<path fill="none" stroke="black" stroke-dasharray="5,2" d="M163,-149.91C163,-149.91 163,-168.79 163,-168.79"/>
<polygon fill="black" stroke="black" points="159.5,-168.79 163,-178.79 166.5,-168.79 159.5,-168.79"/>
</g>
<!-- RecordsService -->
<g id="node5" class="node">
<title>RecordsService</title>
<ellipse fill="#fdb462" stroke="black" cx="303" cy="-66.8" rx="71.78" ry="18"/>
<text text-anchor="middle" x="303" y="-62.6" font-family="Times,serif" font-size="14.00">RecordsService</text>
</g>
<!-- RecordsService&#45;&gt;RecordsModule -->
<g id="edge4" class="edge">
<title>RecordsService&#45;&gt;RecordsModule</title>
<path fill="none" stroke="black" d="M231.31,-66.8C219.72,-66.8 211.44,-66.8 211.44,-66.8 211.44,-66.8 211.44,-103.69 211.44,-103.69"/>
<polygon fill="black" stroke="black" points="207.94,-103.69 211.44,-113.69 214.94,-103.69 207.94,-103.69"/>
</g>
</g>
</svg>
