<?xml version="1.0" encoding="UTF-8" standalone="no"?>
<!DOCTYPE svg PUBLIC "-//W3C//DTD SVG 1.1//EN"
 "http://www.w3.org/Graphics/SVG/1.1/DTD/svg11.dtd">
<!-- Generated by graphviz version 3.0.0 (20220226.1711)
 -->
<!-- Title: dependencies Pages: 1 -->
<svg width="160pt" height="247pt"
 viewBox="0.00 0.00 160.00 246.80" xmlns="http://www.w3.org/2000/svg" xmlns:xlink="http://www.w3.org/1999/xlink">
<g id="graph0" class="graph" transform="scale(1 1) rotate(0) translate(4 242.8)">
<title>dependencies</title>
<polygon fill="white" stroke="transparent" points="-4,4 -4,-242.8 156,-242.8 156,4 -4,4"/>
<text text-anchor="middle" x="76" y="-8.2" font-family="sans-serif" font-size="14.00">dependencies</text>
<g id="clust1" class="cluster">
<title>cluster_SRModule</title>
<polygon fill="none" stroke="black" stroke-dasharray="1,5" points="8,-32.8 8,-230.8 144,-230.8 144,-32.8 8,-32.8"/>
</g>
<g id="clust6" class="cluster">
<title>cluster_SRModule_providers</title>
<polygon fill="none" stroke="black" points="16,-40.8 16,-92.8 136,-92.8 136,-40.8 16,-40.8"/>
</g>
<g id="clust4" class="cluster">
<title>cluster_SRModule_exports</title>
<polygon fill="none" stroke="black" points="29,-170.8 29,-222.8 123,-222.8 123,-170.8 29,-170.8"/>
</g>
<!-- SRService  -->
<g id="node1" class="node">
<title>SRService </title>
<polygon fill="#fb8072" stroke="black" points="115.1,-214.8 36.9,-214.8 36.9,-178.8 115.1,-178.8 115.1,-214.8"/>
<text text-anchor="middle" x="76" y="-192.6" font-family="Times,serif" font-size="14.00">SRService </text>
</g>
<!-- SRModule -->
<g id="node2" class="node">
<title>SRModule</title>
<polygon fill="#8dd3c7" stroke="black" points="114.18,-149.8 111.18,-153.8 90.18,-153.8 87.18,-149.8 37.82,-149.8 37.82,-113.8 114.18,-113.8 114.18,-149.8"/>
<text text-anchor="middle" x="76" y="-127.6" font-family="Times,serif" font-size="14.00">SRModule</text>
</g>
<!-- SRModule&#45;&gt;SRService  -->
<g id="edge1" class="edge">
<title>SRModule&#45;&gt;SRService </title>
<path fill="none" stroke="black" stroke-dasharray="5,2" d="M76,-149.91C76,-149.91 76,-168.79 76,-168.79"/>
<polygon fill="black" stroke="black" points="72.5,-168.79 76,-178.79 79.5,-168.79 72.5,-168.79"/>
</g>
<!-- SRService -->
<g id="node3" class="node">
<title>SRService</title>
<ellipse fill="#fdb462" stroke="black" cx="76" cy="-66.8" rx="51.61" ry="18"/>
<text text-anchor="middle" x="76" y="-62.6" font-family="Times,serif" font-size="14.00">SRService</text>
</g>
<!-- SRService&#45;&gt;SRModule -->
<g id="edge2" class="edge">
<title>SRService&#45;&gt;SRModule</title>
<path fill="none" stroke="black" d="M76,-84.91C76,-84.91 76,-103.79 76,-103.79"/>
<polygon fill="black" stroke="black" points="72.5,-103.79 76,-113.79 79.5,-103.79 72.5,-103.79"/>
</g>
</g>
</svg>
