<?xml version="1.0" encoding="UTF-8" standalone="no"?>
<!DOCTYPE svg PUBLIC "-//W3C//DTD SVG 1.1//EN"
 "http://www.w3.org/Graphics/SVG/1.1/DTD/svg11.dtd">
<!-- Generated by graphviz version 3.0.0 (20220226.1711)
 -->
<!-- Title: dependencies Pages: 1 -->
<svg width="162pt" height="247pt"
 viewBox="0.00 0.00 162.00 246.80" xmlns="http://www.w3.org/2000/svg" xmlns:xlink="http://www.w3.org/1999/xlink">
<g id="graph0" class="graph" transform="scale(1 1) rotate(0) translate(4 242.8)">
<title>dependencies</title>
<polygon fill="white" stroke="transparent" points="-4,4 -4,-242.8 158,-242.8 158,4 -4,4"/>
<text text-anchor="middle" x="77" y="-8.2" font-family="sans-serif" font-size="14.00">dependencies</text>
<g id="clust1" class="cluster">
<title>cluster_InitModule</title>
<polygon fill="none" stroke="black" stroke-dasharray="1,5" points="8,-32.8 8,-230.8 146,-230.8 146,-32.8 8,-32.8"/>
</g>
<g id="clust4" class="cluster">
<title>cluster_InitModule_exports</title>
<polygon fill="none" stroke="black" points="29,-170.8 29,-222.8 125,-222.8 125,-170.8 29,-170.8"/>
</g>
<g id="clust6" class="cluster">
<title>cluster_InitModule_providers</title>
<polygon fill="none" stroke="black" points="16,-40.8 16,-92.8 138,-92.8 138,-40.8 16,-40.8"/>
</g>
<!-- InitService  -->
<g id="node1" class="node">
<title>InitService </title>
<polygon fill="#fb8072" stroke="black" points="117.42,-214.8 36.58,-214.8 36.58,-178.8 117.42,-178.8 117.42,-214.8"/>
<text text-anchor="middle" x="77" y="-192.6" font-family="Times,serif" font-size="14.00">InitService </text>
</g>
<!-- InitModule -->
<g id="node2" class="node">
<title>InitModule</title>
<polygon fill="#8dd3c7" stroke="black" points="116.49,-149.8 113.49,-153.8 92.49,-153.8 89.49,-149.8 37.51,-149.8 37.51,-113.8 116.49,-113.8 116.49,-149.8"/>
<text text-anchor="middle" x="77" y="-127.6" font-family="Times,serif" font-size="14.00">InitModule</text>
</g>
<!-- InitModule&#45;&gt;InitService  -->
<g id="edge1" class="edge">
<title>InitModule&#45;&gt;InitService </title>
<path fill="none" stroke="black" stroke-dasharray="5,2" d="M77,-149.91C77,-149.91 77,-168.79 77,-168.79"/>
<polygon fill="black" stroke="black" points="73.5,-168.79 77,-178.79 80.5,-168.79 73.5,-168.79"/>
</g>
<!-- InitService -->
<g id="node3" class="node">
<title>InitService</title>
<ellipse fill="#fdb462" stroke="black" cx="77" cy="-66.8" rx="53.31" ry="18"/>
<text text-anchor="middle" x="77" y="-62.6" font-family="Times,serif" font-size="14.00">InitService</text>
</g>
<!-- InitService&#45;&gt;InitModule -->
<g id="edge2" class="edge">
<title>InitService&#45;&gt;InitModule</title>
<path fill="none" stroke="black" d="M77,-84.91C77,-84.91 77,-103.79 77,-103.79"/>
<polygon fill="black" stroke="black" points="73.5,-103.79 77,-113.79 80.5,-103.79 73.5,-103.79"/>
</g>
</g>
</svg>
