<?xml version="1.0" encoding="UTF-8" standalone="no"?>
<!DOCTYPE svg PUBLIC "-//W3C//DTD SVG 1.1//EN"
 "http://www.w3.org/Graphics/SVG/1.1/DTD/svg11.dtd">
<!-- Generated by graphviz version 3.0.0 (20220226.1711)
 -->
<!-- Title: dependencies Pages: 1 -->
<svg width="210pt" height="247pt"
 viewBox="0.00 0.00 210.00 246.80" xmlns="http://www.w3.org/2000/svg" xmlns:xlink="http://www.w3.org/1999/xlink">
<g id="graph0" class="graph" transform="scale(1 1) rotate(0) translate(4 242.8)">
<title>dependencies</title>
<polygon fill="white" stroke="transparent" points="-4,4 -4,-242.8 206,-242.8 206,4 -4,4"/>
<text text-anchor="middle" x="101" y="-8.2" font-family="sans-serif" font-size="14.00">dependencies</text>
<g id="clust1" class="cluster">
<title>cluster_WebRTCModule</title>
<polygon fill="none" stroke="black" stroke-dasharray="1,5" points="8,-32.8 8,-230.8 194,-230.8 194,-32.8 8,-32.8"/>
</g>
<g id="clust4" class="cluster">
<title>cluster_WebRTCModule_exports</title>
<polygon fill="none" stroke="black" points="35,-170.8 35,-222.8 167,-222.8 167,-170.8 35,-170.8"/>
</g>
<g id="clust6" class="cluster">
<title>cluster_WebRTCModule_providers</title>
<polygon fill="none" stroke="black" points="16,-40.8 16,-92.8 186,-92.8 186,-40.8 16,-40.8"/>
</g>
<!-- WebRTCService  -->
<g id="node1" class="node">
<title>WebRTCService </title>
<polygon fill="#fb8072" stroke="black" points="158.63,-214.8 43.37,-214.8 43.37,-178.8 158.63,-178.8 158.63,-214.8"/>
<text text-anchor="middle" x="101" y="-192.6" font-family="Times,serif" font-size="14.00">WebRTCService </text>
</g>
<!-- WebRTCModule -->
<g id="node2" class="node">
<title>WebRTCModule</title>
<polygon fill="#8dd3c7" stroke="black" points="157.71,-149.8 154.71,-153.8 133.71,-153.8 130.71,-149.8 44.29,-149.8 44.29,-113.8 157.71,-113.8 157.71,-149.8"/>
<text text-anchor="middle" x="101" y="-127.6" font-family="Times,serif" font-size="14.00">WebRTCModule</text>
</g>
<!-- WebRTCModule&#45;&gt;WebRTCService  -->
<g id="edge1" class="edge">
<title>WebRTCModule&#45;&gt;WebRTCService </title>
<path fill="none" stroke="black" stroke-dasharray="5,2" d="M101,-149.91C101,-149.91 101,-168.79 101,-168.79"/>
<polygon fill="black" stroke="black" points="97.5,-168.79 101,-178.79 104.5,-168.79 97.5,-168.79"/>
</g>
<!-- WebRTCService -->
<g id="node3" class="node">
<title>WebRTCService</title>
<ellipse fill="#fdb462" stroke="black" cx="101" cy="-66.8" rx="77.01" ry="18"/>
<text text-anchor="middle" x="101" y="-62.6" font-family="Times,serif" font-size="14.00">WebRTCService</text>
</g>
<!-- WebRTCService&#45;&gt;WebRTCModule -->
<g id="edge2" class="edge">
<title>WebRTCService&#45;&gt;WebRTCModule</title>
<path fill="none" stroke="black" d="M101,-84.91C101,-84.91 101,-103.79 101,-103.79"/>
<polygon fill="black" stroke="black" points="97.5,-103.79 101,-113.79 104.5,-103.79 97.5,-103.79"/>
</g>
</g>
</svg>
