<?xml version="1.0" encoding="UTF-8" standalone="no"?>
<!DOCTYPE svg PUBLIC "-//W3C//DTD SVG 1.1//EN"
 "http://www.w3.org/Graphics/SVG/1.1/DTD/svg11.dtd">
<!-- Generated by graphviz version 3.0.0 (20220226.1711)
 -->
<!-- Title: dependencies Pages: 1 -->
<svg width="2555pt" height="337pt"
 viewBox="0.00 0.00 2555.00 336.80" xmlns="http://www.w3.org/2000/svg" xmlns:xlink="http://www.w3.org/1999/xlink">
<g id="graph0" class="graph" transform="scale(1 1) rotate(0) translate(4 332.8)">
<title>dependencies</title>
<polygon fill="white" stroke="transparent" points="-4,4 -4,-332.8 2551,-332.8 2551,4 -4,4"/>
<text text-anchor="middle" x="1273.5" y="-8.2" font-family="sans-serif" font-size="14.00">dependencies</text>
<g id="clust1" class="cluster">
<title>cluster_AgentModule</title>
<polygon fill="none" stroke="black" stroke-dasharray="1,5" points="8,-32.8 8,-168.8 132,-168.8 132,-32.8 8,-32.8"/>
</g>
<g id="clust3" class="cluster">
<title>cluster_AgentModule_imports</title>
<polygon fill="none" stroke="black" points="16,-40.8 16,-92.8 124,-92.8 124,-40.8 16,-40.8"/>
</g>
<g id="clust7" class="cluster">
<title>cluster_AppModule</title>
<polygon fill="none" stroke="black" stroke-dasharray="1,5" points="422,-108.8 422,-244.8 907,-244.8 907,-108.8 422,-108.8"/>
</g>
<g id="clust9" class="cluster">
<title>cluster_AppModule_imports</title>
<polygon fill="none" stroke="black" points="568,-116.8 568,-168.8 899,-168.8 899,-116.8 568,-116.8"/>
</g>
<g id="clust12" class="cluster">
<title>cluster_AppModule_providers</title>
<polygon fill="none" stroke="black" points="430,-116.8 430,-168.8 560,-168.8 560,-116.8 430,-116.8"/>
</g>
<g id="clust13" class="cluster">
<title>cluster_AuthModule</title>
<polygon fill="none" stroke="black" stroke-dasharray="1,5" points="640,-32.8 640,-100.8 1036,-100.8 1036,-32.8 640,-32.8"/>
</g>
<g id="clust16" class="cluster">
<title>cluster_AuthModule_exports</title>
<polygon fill="none" stroke="black" points="922,-40.8 922,-92.8 1028,-92.8 1028,-40.8 922,-40.8"/>
</g>
<g id="clust18" class="cluster">
<title>cluster_AuthModule_providers</title>
<polygon fill="none" stroke="black" points="648,-40.8 648,-92.8 914,-92.8 914,-40.8 648,-40.8"/>
</g>
<g id="clust19" class="cluster">
<title>cluster_CallsModule</title>
<polygon fill="none" stroke="black" stroke-dasharray="1,5" points="1499,-32.8 1499,-252.8 1651,-252.8 1651,-32.8 1499,-32.8"/>
</g>
<g id="clust22" class="cluster">
<title>cluster_CallsModule_exports</title>
<polygon fill="none" stroke="black" points="1522,-192.8 1522,-244.8 1628,-244.8 1628,-192.8 1522,-192.8"/>
</g>
<g id="clust24" class="cluster">
<title>cluster_CallsModule_providers</title>
<polygon fill="none" stroke="black" points="1507,-40.8 1507,-92.8 1643,-92.8 1643,-40.8 1507,-40.8"/>
</g>
<g id="clust25" class="cluster">
<title>cluster_CaslModule</title>
<polygon fill="none" stroke="black" stroke-dasharray="1,5" points="2337,-32.8 2337,-252.8 2539,-252.8 2539,-32.8 2337,-32.8"/>
</g>
<g id="clust27" class="cluster">
<title>cluster_CaslModule_imports</title>
<polygon fill="none" stroke="black" points="2345,-40.8 2345,-92.8 2531,-92.8 2531,-40.8 2345,-40.8"/>
</g>
<g id="clust28" class="cluster">
<title>cluster_CaslModule_exports</title>
<polygon fill="none" stroke="black" points="2367,-192.8 2367,-244.8 2509,-244.8 2509,-192.8 2367,-192.8"/>
</g>
<g id="clust31" class="cluster">
<title>cluster_EventsModule</title>
<polygon fill="none" stroke="black" stroke-dasharray="1,5" points="1659,-192.8 1659,-320.8 1799,-320.8 1799,-192.8 1659,-192.8"/>
</g>
<g id="clust34" class="cluster">
<title>cluster_EventsModule_exports</title>
<polygon fill="none" stroke="black" points="1667,-260.8 1667,-312.8 1791,-312.8 1791,-260.8 1667,-260.8"/>
</g>
<g id="clust37" class="cluster">
<title>cluster_InitModule</title>
<polygon fill="none" stroke="black" stroke-dasharray="1,5" points="915,-184.8 915,-252.8 1157,-252.8 1157,-184.8 915,-184.8"/>
</g>
<g id="clust40" class="cluster">
<title>cluster_InitModule_exports</title>
<polygon fill="none" stroke="black" points="1053,-192.8 1053,-244.8 1149,-244.8 1149,-192.8 1053,-192.8"/>
</g>
<g id="clust42" class="cluster">
<title>cluster_InitModule_providers</title>
<polygon fill="none" stroke="black" points="923,-192.8 923,-244.8 1045,-244.8 1045,-192.8 923,-192.8"/>
</g>
<g id="clust43" class="cluster">
<title>cluster_RecordsModule</title>
<polygon fill="none" stroke="black" stroke-dasharray="1,5" points="1807,-108.8 1807,-320.8 2083,-320.8 2083,-108.8 1807,-108.8"/>
</g>
<g id="clust45" class="cluster">
<title>cluster_RecordsModule_imports</title>
<polygon fill="none" stroke="black" points="1983,-116.8 1983,-168.8 2075,-168.8 2075,-116.8 1983,-116.8"/>
</g>
<g id="clust46" class="cluster">
<title>cluster_RecordsModule_exports</title>
<polygon fill="none" stroke="black" points="1833,-260.8 1833,-312.8 1957,-312.8 1957,-260.8 1833,-260.8"/>
</g>
<g id="clust48" class="cluster">
<title>cluster_RecordsModule_providers</title>
<polygon fill="none" stroke="black" points="1815,-116.8 1815,-168.8 1975,-168.8 1975,-116.8 1815,-116.8"/>
</g>
<g id="clust49" class="cluster">
<title>cluster_SRModule</title>
<polygon fill="none" stroke="black" stroke-dasharray="1,5" points="2091,-184.8 2091,-252.8 2329,-252.8 2329,-184.8 2091,-184.8"/>
</g>
<g id="clust52" class="cluster">
<title>cluster_SRModule_exports</title>
<polygon fill="none" stroke="black" points="2227,-192.8 2227,-244.8 2321,-244.8 2321,-192.8 2227,-192.8"/>
</g>
<g id="clust54" class="cluster">
<title>cluster_SRModule_providers</title>
<polygon fill="none" stroke="black" points="2099,-192.8 2099,-244.8 2219,-244.8 2219,-192.8 2099,-192.8"/>
</g>
<g id="clust55" class="cluster">
<title>cluster_UsersModule</title>
<polygon fill="none" stroke="black" stroke-dasharray="1,5" points="140,-108.8 140,-176.8 414,-176.8 414,-108.8 140,-108.8"/>
</g>
<g id="clust58" class="cluster">
<title>cluster_UsersModule_exports</title>
<polygon fill="none" stroke="black" points="296,-116.8 296,-168.8 406,-168.8 406,-116.8 296,-116.8"/>
</g>
<g id="clust60" class="cluster">
<title>cluster_UsersModule_providers</title>
<polygon fill="none" stroke="black" points="148,-116.8 148,-168.8 288,-168.8 288,-116.8 148,-116.8"/>
</g>
<g id="clust61" class="cluster">
<title>cluster_WebRTCModule</title>
<polygon fill="none" stroke="black" stroke-dasharray="1,5" points="1165,-184.8 1165,-252.8 1491,-252.8 1491,-184.8 1165,-184.8"/>
</g>
<g id="clust64" class="cluster">
<title>cluster_WebRTCModule_exports</title>
<polygon fill="none" stroke="black" points="1351,-192.8 1351,-244.8 1483,-244.8 1483,-192.8 1351,-192.8"/>
</g>
<g id="clust66" class="cluster">
<title>cluster_WebRTCModule_providers</title>
<polygon fill="none" stroke="black" points="1173,-192.8 1173,-244.8 1343,-244.8 1343,-192.8 1173,-192.8"/>
</g>
<!-- UsersModule -->
<g id="node1" class="node">
<title>UsersModule</title>
<polygon fill="#8dd3c7" stroke="black" points="115.94,-84.8 112.94,-88.8 91.94,-88.8 88.94,-84.8 24.06,-84.8 24.06,-48.8 115.94,-48.8 115.94,-84.8"/>
<text text-anchor="middle" x="70" y="-62.6" font-family="Times,serif" font-size="14.00">UsersModule</text>
</g>
<!-- AgentModule -->
<g id="node2" class="node">
<title>AgentModule</title>
<polygon fill="#8dd3c7" stroke="black" points="119.77,-160.8 116.77,-164.8 95.77,-164.8 92.77,-160.8 26.23,-160.8 26.23,-124.8 119.77,-124.8 119.77,-160.8"/>
<text text-anchor="middle" x="73" y="-138.6" font-family="Times,serif" font-size="14.00">AgentModule</text>
</g>
<!-- UsersModule&#45;&gt;AgentModule -->
<g id="edge1" class="edge">
<title>UsersModule&#45;&gt;AgentModule</title>
<path fill="none" stroke="black" d="M48.52,-84.81C48.52,-84.81 48.52,-114.65 48.52,-114.65"/>
<polygon fill="black" stroke="black" points="45.02,-114.65 48.52,-124.65 52.02,-114.65 45.02,-114.65"/>
</g>
<!-- AuthModule -->
<g id="node3" class="node">
<title>AuthModule</title>
<polygon fill="#8dd3c7" stroke="black" points="890.55,-160.8 887.55,-164.8 866.55,-164.8 863.55,-160.8 803.45,-160.8 803.45,-124.8 890.55,-124.8 890.55,-160.8"/>
<text text-anchor="middle" x="847" y="-138.6" font-family="Times,serif" font-size="14.00">AuthModule</text>
</g>
<!-- UsersModule&#45;&gt;AuthModule -->
<g id="edge7" class="edge">
<title>UsersModule&#45;&gt;AuthModule</title>
<path fill="none" stroke="black" d="M70.92,-84.95C70.92,-98.54 70.92,-114.8 70.92,-114.8 70.92,-114.8 825.11,-114.8 825.11,-114.8 825.11,-114.8 825.11,-115.78 825.11,-115.78"/>
<polygon fill="black" stroke="black" points="821.61,-114.59 825.11,-124.59 828.61,-114.59 821.61,-114.59"/>
</g>
<!-- CallsModule -->
<g id="node11" class="node">
<title>CallsModule</title>
<polygon fill="#8dd3c7" stroke="black" points="1619.33,-160.8 1616.33,-164.8 1595.33,-164.8 1592.33,-160.8 1530.67,-160.8 1530.67,-124.8 1619.33,-124.8 1619.33,-160.8"/>
<text text-anchor="middle" x="1575" y="-138.6" font-family="Times,serif" font-size="14.00">CallsModule</text>
</g>
<!-- UsersModule&#45;&gt;CallsModule -->
<g id="edge11" class="edge">
<title>UsersModule&#45;&gt;CallsModule</title>
<path fill="none" stroke="black" d="M93.32,-85.01C93.32,-90.35 93.32,-94.8 93.32,-94.8 93.32,-94.8 1560.28,-94.8 1560.28,-94.8 1560.28,-94.8 1560.28,-114.65 1560.28,-114.65"/>
<polygon fill="black" stroke="black" points="1556.78,-114.65 1560.28,-124.65 1563.78,-114.65 1556.78,-114.65"/>
</g>
<!-- UsersService  -->
<g id="node27" class="node">
<title>UsersService </title>
<polygon fill="#fb8072" stroke="black" points="397.86,-160.8 304.14,-160.8 304.14,-124.8 397.86,-124.8 397.86,-160.8"/>
<text text-anchor="middle" x="351" y="-138.6" font-family="Times,serif" font-size="14.00">UsersService </text>
</g>
<!-- UsersModule&#45;&gt;UsersService  -->
<g id="edge28" class="edge">
<title>UsersModule&#45;&gt;UsersService </title>
<path fill="none" stroke="black" stroke-dasharray="5,2" d="M115.77,-60.8C195.4,-60.8 351,-60.8 351,-60.8 351,-60.8 351,-114.6 351,-114.6"/>
<polygon fill="black" stroke="black" points="347.5,-114.6 351,-124.6 354.5,-114.6 347.5,-114.6"/>
</g>
<!-- AppModule -->
<g id="node6" class="node">
<title>AppModule</title>
<polygon fill="#8dd3c7" stroke="black" points="656.66,-236.8 653.66,-240.8 632.66,-240.8 629.66,-236.8 573.34,-236.8 573.34,-200.8 656.66,-200.8 656.66,-236.8"/>
<text text-anchor="middle" x="615" y="-214.6" font-family="Times,serif" font-size="14.00">AppModule</text>
</g>
<!-- AgentModule&#45;&gt;AppModule -->
<g id="edge2" class="edge">
<title>AgentModule&#45;&gt;AppModule</title>
<path fill="none" stroke="black" d="M73,-161C73,-185.16 73,-224.8 73,-224.8 73,-224.8 562.92,-224.8 562.92,-224.8"/>
<polygon fill="black" stroke="black" points="562.92,-228.3 572.92,-224.8 562.92,-221.3 562.92,-228.3"/>
</g>
<!-- AuthModule&#45;&gt;AppModule -->
<g id="edge3" class="edge">
<title>AuthModule&#45;&gt;AppModule</title>
<path fill="none" stroke="black" d="M861.59,-160.83C861.59,-185.78 861.59,-227.8 861.59,-227.8 861.59,-227.8 666.83,-227.8 666.83,-227.8"/>
<polygon fill="black" stroke="black" points="666.83,-224.3 656.83,-227.8 666.83,-231.3 666.83,-224.3"/>
</g>
<!-- AuthService  -->
<g id="node8" class="node">
<title>AuthService </title>
<polygon fill="#fb8072" stroke="black" points="1019.98,-84.8 930.02,-84.8 930.02,-48.8 1019.98,-48.8 1019.98,-84.8"/>
<text text-anchor="middle" x="975" y="-62.6" font-family="Times,serif" font-size="14.00">AuthService </text>
</g>
<!-- AuthModule&#45;&gt;AuthService  -->
<g id="edge8" class="edge">
<title>AuthModule&#45;&gt;AuthService </title>
<path fill="none" stroke="black" stroke-dasharray="5,2" d="M890.75,-142.8C927.88,-142.8 975.17,-142.8 975.17,-142.8 975.17,-142.8 975.17,-94.81 975.17,-94.81"/>
<polygon fill="black" stroke="black" points="978.67,-94.81 975.17,-84.81 971.67,-94.81 978.67,-94.81"/>
</g>
<!-- EventsModule -->
<g id="node17" class="node">
<title>EventsModule</title>
<polygon fill="#8dd3c7" stroke="black" points="1777.66,-236.8 1774.66,-240.8 1753.66,-240.8 1750.66,-236.8 1680.34,-236.8 1680.34,-200.8 1777.66,-200.8 1777.66,-236.8"/>
<text text-anchor="middle" x="1729" y="-214.6" font-family="Times,serif" font-size="14.00">EventsModule</text>
</g>
<!-- AuthModule&#45;&gt;EventsModule -->
<g id="edge17" class="edge">
<title>AuthModule&#45;&gt;EventsModule</title>
<path fill="none" stroke="black" d="M832.41,-160.97C832.41,-164.85 832.41,-167.8 832.41,-167.8 832.41,-167.8 1712.72,-167.8 1712.72,-167.8 1712.72,-167.8 1712.72,-190.68 1712.72,-190.68"/>
<polygon fill="black" stroke="black" points="1709.22,-190.68 1712.72,-200.68 1716.22,-190.68 1709.22,-190.68"/>
</g>
<!-- InitModule -->
<g id="node4" class="node">
<title>InitModule</title>
<polygon fill="#8dd3c7" stroke="black" points="654.49,-160.8 651.49,-164.8 630.49,-164.8 627.49,-160.8 575.51,-160.8 575.51,-124.8 654.49,-124.8 654.49,-160.8"/>
<text text-anchor="middle" x="615" y="-138.6" font-family="Times,serif" font-size="14.00">InitModule</text>
</g>
<!-- InitModule&#45;&gt;AppModule -->
<g id="edge4" class="edge">
<title>InitModule&#45;&gt;AppModule</title>
<path fill="none" stroke="black" d="M601.83,-160.81C601.83,-160.81 601.83,-190.65 601.83,-190.65"/>
<polygon fill="black" stroke="black" points="598.33,-190.65 601.83,-200.65 605.33,-190.65 598.33,-190.65"/>
</g>
<!-- InitService  -->
<g id="node19" class="node">
<title>InitService </title>
<polygon fill="#fb8072" stroke="black" points="1141.42,-236.8 1060.58,-236.8 1060.58,-200.8 1141.42,-200.8 1141.42,-236.8"/>
<text text-anchor="middle" x="1101" y="-214.6" font-family="Times,serif" font-size="14.00">InitService </text>
</g>
<!-- InitModule&#45;&gt;InitService  -->
<g id="edge20" class="edge">
<title>InitModule&#45;&gt;InitService </title>
<path fill="none" stroke="black" stroke-dasharray="5,2" d="M628.17,-160.99C628.17,-175.98 628.17,-194.8 628.17,-194.8 628.17,-194.8 1101,-194.8 1101,-194.8 1101,-194.8 1101,-195.38 1101,-195.38"/>
<polygon fill="black" stroke="black" points="1097.5,-190.61 1101,-200.61 1104.5,-190.61 1097.5,-190.61"/>
</g>
<!-- WebRTCModule -->
<g id="node5" class="node">
<title>WebRTCModule</title>
<polygon fill="#8dd3c7" stroke="black" points="785.71,-160.8 782.71,-164.8 761.71,-164.8 758.71,-160.8 672.29,-160.8 672.29,-124.8 785.71,-124.8 785.71,-160.8"/>
<text text-anchor="middle" x="729" y="-138.6" font-family="Times,serif" font-size="14.00">WebRTCModule</text>
</g>
<!-- WebRTCModule&#45;&gt;AppModule -->
<g id="edge5" class="edge">
<title>WebRTCModule&#45;&gt;AppModule</title>
<path fill="none" stroke="black" d="M757.3,-160.81C757.3,-183.29 757.3,-218.8 757.3,-218.8 757.3,-218.8 666.93,-218.8 666.93,-218.8"/>
<polygon fill="black" stroke="black" points="666.93,-215.3 656.93,-218.8 666.93,-222.3 666.93,-215.3"/>
</g>
<!-- WebRTCService  -->
<g id="node29" class="node">
<title>WebRTCService </title>
<polygon fill="#fb8072" stroke="black" points="1474.63,-236.8 1359.37,-236.8 1359.37,-200.8 1474.63,-200.8 1474.63,-236.8"/>
<text text-anchor="middle" x="1417" y="-214.6" font-family="Times,serif" font-size="14.00">WebRTCService </text>
</g>
<!-- WebRTCModule&#45;&gt;WebRTCService  -->
<g id="edge30" class="edge">
<title>WebRTCModule&#45;&gt;WebRTCService </title>
<path fill="none" stroke="black" stroke-dasharray="5,2" d="M700.7,-160.91C700.7,-170.7 700.7,-180.8 700.7,-180.8 700.7,-180.8 1417,-180.8 1417,-180.8 1417,-180.8 1417,-190.69 1417,-190.69"/>
<polygon fill="black" stroke="black" points="1413.5,-190.69 1417,-200.69 1420.5,-190.69 1413.5,-190.69"/>
</g>
<!-- AppService -->
<g id="node7" class="node">
<title>AppService</title>
<ellipse fill="#fdb462" stroke="black" cx="495" cy="-142.8" rx="56.75" ry="18"/>
<text text-anchor="middle" x="495" y="-138.6" font-family="Times,serif" font-size="14.00">AppService</text>
</g>
<!-- AppService&#45;&gt;AppModule -->
<g id="edge6" class="edge">
<title>AppService&#45;&gt;AppModule</title>
<path fill="none" stroke="black" d="M495,-160.83C495,-181.57 495,-212.8 495,-212.8 495,-212.8 563.03,-212.8 563.03,-212.8"/>
<polygon fill="black" stroke="black" points="563.03,-216.3 573.03,-212.8 563.03,-209.3 563.03,-216.3"/>
</g>
<!-- AuthService -->
<g id="node9" class="node">
<title>AuthService</title>
<ellipse fill="#fdb462" stroke="black" cx="847" cy="-66.8" rx="59.11" ry="18"/>
<text text-anchor="middle" x="847" y="-62.6" font-family="Times,serif" font-size="14.00">AuthService</text>
</g>
<!-- AuthService&#45;&gt;AuthModule -->
<g id="edge9" class="edge">
<title>AuthService&#45;&gt;AuthModule</title>
<path fill="none" stroke="black" d="M868.89,-83.67C868.89,-83.67 868.89,-114.65 868.89,-114.65"/>
<polygon fill="black" stroke="black" points="865.39,-114.65 868.89,-124.65 872.39,-114.65 865.39,-114.65"/>
</g>
<!-- JwtStrategy -->
<g id="node10" class="node">
<title>JwtStrategy</title>
<ellipse fill="#fdb462" stroke="black" cx="713" cy="-66.8" rx="56.77" ry="18"/>
<text text-anchor="middle" x="713" y="-62.6" font-family="Times,serif" font-size="14.00">JwtStrategy</text>
</g>
<!-- JwtStrategy&#45;&gt;AuthModule -->
<g id="edge10" class="edge">
<title>JwtStrategy&#45;&gt;AuthModule</title>
<path fill="none" stroke="black" d="M721.01,-84.91C721.01,-94.7 721.01,-104.8 721.01,-104.8 721.01,-104.8 847,-104.8 847,-104.8 847,-104.8 847,-114.69 847,-114.69"/>
<polygon fill="black" stroke="black" points="843.5,-114.69 847,-124.69 850.5,-114.69 843.5,-114.69"/>
</g>
<!-- CallsService  -->
<g id="node12" class="node">
<title>CallsService </title>
<polygon fill="#fb8072" stroke="black" points="1620.26,-236.8 1529.74,-236.8 1529.74,-200.8 1620.26,-200.8 1620.26,-236.8"/>
<text text-anchor="middle" x="1575" y="-214.6" font-family="Times,serif" font-size="14.00">CallsService </text>
</g>
<!-- CallsModule&#45;&gt;CallsService  -->
<g id="edge12" class="edge">
<title>CallsModule&#45;&gt;CallsService </title>
<path fill="none" stroke="black" stroke-dasharray="5,2" d="M1575,-160.81C1575,-160.81 1575,-190.65 1575,-190.65"/>
<polygon fill="black" stroke="black" points="1571.5,-190.65 1575,-200.65 1578.5,-190.65 1571.5,-190.65"/>
</g>
<!-- RecordsModule -->
<g id="node22" class="node">
<title>RecordsModule</title>
<polygon fill="#8dd3c7" stroke="black" points="1947.93,-236.8 1944.93,-240.8 1923.93,-240.8 1920.93,-236.8 1842.07,-236.8 1842.07,-200.8 1947.93,-200.8 1947.93,-236.8"/>
<text text-anchor="middle" x="1895" y="-214.6" font-family="Times,serif" font-size="14.00">RecordsModule</text>
</g>
<!-- CallsModule&#45;&gt;RecordsModule -->
<g id="edge22" class="edge">
<title>CallsModule&#45;&gt;RecordsModule</title>
<path fill="none" stroke="black" d="M1619.23,-142.8C1685.54,-142.8 1803.02,-142.8 1803.02,-142.8 1803.02,-142.8 1803.02,-218.8 1803.02,-218.8 1803.02,-218.8 1832.03,-218.8 1832.03,-218.8"/>
<polygon fill="black" stroke="black" points="1832.03,-222.3 1842.03,-218.8 1832.03,-215.3 1832.03,-222.3"/>
</g>
<!-- CallsService -->
<g id="node13" class="node">
<title>CallsService</title>
<ellipse fill="#fdb462" stroke="black" cx="1575" cy="-66.8" rx="59.69" ry="18"/>
<text text-anchor="middle" x="1575" y="-62.6" font-family="Times,serif" font-size="14.00">CallsService</text>
</g>
<!-- CallsService&#45;&gt;CallsModule -->
<g id="edge13" class="edge">
<title>CallsService&#45;&gt;CallsModule</title>
<path fill="none" stroke="black" d="M1589.72,-84.43C1589.72,-84.43 1589.72,-114.74 1589.72,-114.74"/>
<polygon fill="black" stroke="black" points="1586.22,-114.74 1589.72,-124.74 1593.22,-114.74 1586.22,-114.74"/>
</g>
<!-- CaslAbilityFactory -->
<g id="node14" class="node">
<title>CaslAbilityFactory</title>
<ellipse fill="#8dd3c7" stroke="black" cx="2438" cy="-66.8" rx="85.13" ry="18"/>
<text text-anchor="middle" x="2438" y="-62.6" font-family="Times,serif" font-size="14.00">CaslAbilityFactory</text>
</g>
<!-- CaslModule -->
<g id="node15" class="node">
<title>CaslModule</title>
<polygon fill="#8dd3c7" stroke="black" points="2480.44,-160.8 2477.44,-164.8 2456.44,-164.8 2453.44,-160.8 2395.56,-160.8 2395.56,-124.8 2480.44,-124.8 2480.44,-160.8"/>
<text text-anchor="middle" x="2438" y="-138.6" font-family="Times,serif" font-size="14.00">CaslModule</text>
</g>
<!-- CaslAbilityFactory&#45;&gt;CaslModule -->
<g id="edge14" class="edge">
<title>CaslAbilityFactory&#45;&gt;CaslModule</title>
<path fill="none" stroke="black" d="M2452.07,-84.81C2452.07,-84.81 2452.07,-114.65 2452.07,-114.65"/>
<polygon fill="black" stroke="black" points="2448.57,-114.65 2452.07,-124.65 2455.57,-114.65 2448.57,-114.65"/>
</g>
<!-- CaslAbilityFactory&#45;&gt;CaslModule -->
<g id="edge16" class="edge">
<title>CaslAbilityFactory&#45;&gt;CaslModule</title>
<path fill="none" stroke="black" d="M2423.93,-84.81C2423.93,-84.81 2423.93,-114.65 2423.93,-114.65"/>
<polygon fill="black" stroke="black" points="2420.43,-114.65 2423.93,-124.65 2427.43,-114.65 2420.43,-114.65"/>
</g>
<!-- CaslAbilityFactory  -->
<g id="node16" class="node">
<title>CaslAbilityFactory </title>
<polygon fill="#fb8072" stroke="black" points="2501.32,-236.8 2374.68,-236.8 2374.68,-200.8 2501.32,-200.8 2501.32,-236.8"/>
<text text-anchor="middle" x="2438" y="-214.6" font-family="Times,serif" font-size="14.00">CaslAbilityFactory </text>
</g>
<!-- CaslModule&#45;&gt;CaslAbilityFactory  -->
<g id="edge15" class="edge">
<title>CaslModule&#45;&gt;CaslAbilityFactory </title>
<path fill="none" stroke="black" stroke-dasharray="5,2" d="M2452.07,-160.81C2452.07,-160.81 2452.07,-190.65 2452.07,-190.65"/>
<polygon fill="black" stroke="black" points="2448.57,-190.65 2452.07,-200.65 2455.57,-190.65 2448.57,-190.65"/>
</g>
<!-- CaslModule&#45;&gt;EventsModule -->
<g id="edge18" class="edge">
<title>CaslModule&#45;&gt;EventsModule</title>
<path fill="none" stroke="black" d="M2423.93,-161.04C2423.93,-168.23 2423.93,-174.8 2423.93,-174.8 2423.93,-174.8 1745.28,-174.8 1745.28,-174.8 1745.28,-174.8 1745.28,-190.65 1745.28,-190.65"/>
<polygon fill="black" stroke="black" points="1741.78,-190.65 1745.28,-200.65 1748.78,-190.65 1741.78,-190.65"/>
</g>
<!-- EventsGateway  -->
<g id="node18" class="node">
<title>EventsGateway </title>
<polygon fill="#fb8072" stroke="black" points="1782.86,-304.8 1675.14,-304.8 1675.14,-268.8 1782.86,-268.8 1782.86,-304.8"/>
<text text-anchor="middle" x="1729" y="-282.6" font-family="Times,serif" font-size="14.00">EventsGateway </text>
</g>
<!-- EventsModule&#45;&gt;EventsGateway  -->
<g id="edge19" class="edge">
<title>EventsModule&#45;&gt;EventsGateway </title>
<path fill="none" stroke="black" stroke-dasharray="5,2" d="M1729,-237.02C1729,-237.02 1729,-258.53 1729,-258.53"/>
<polygon fill="black" stroke="black" points="1725.5,-258.53 1729,-268.53 1732.5,-258.53 1725.5,-258.53"/>
</g>
<!-- InitService -->
<g id="node20" class="node">
<title>InitService</title>
<ellipse fill="#fdb462" stroke="black" cx="984" cy="-218.8" rx="53.31" ry="18"/>
<text text-anchor="middle" x="984" y="-214.6" font-family="Times,serif" font-size="14.00">InitService</text>
</g>
<!-- InitService&#45;&gt;InitModule -->
<g id="edge21" class="edge">
<title>InitService&#45;&gt;InitModule</title>
<path fill="none" stroke="black" d="M937.56,-209.8C848.98,-209.8 664.61,-209.8 664.61,-209.8 664.61,-209.8 664.61,-142.8 664.61,-142.8 664.61,-142.8 663.61,-142.8 663.61,-142.8"/>
<polygon fill="black" stroke="black" points="664.57,-139.3 654.57,-142.8 664.57,-146.3 664.57,-139.3"/>
</g>
<!-- SRModule -->
<g id="node21" class="node">
<title>SRModule</title>
<polygon fill="#8dd3c7" stroke="black" points="2067.18,-160.8 2064.18,-164.8 2043.18,-164.8 2040.18,-160.8 1990.82,-160.8 1990.82,-124.8 2067.18,-124.8 2067.18,-160.8"/>
<text text-anchor="middle" x="2029" y="-138.6" font-family="Times,serif" font-size="14.00">SRModule</text>
</g>
<!-- SRModule&#45;&gt;RecordsModule -->
<g id="edge23" class="edge">
<title>SRModule&#45;&gt;RecordsModule</title>
<path fill="none" stroke="black" d="M2016.22,-160.83C2016.22,-181.57 2016.22,-212.8 2016.22,-212.8 2016.22,-212.8 1957.82,-212.8 1957.82,-212.8"/>
<polygon fill="black" stroke="black" points="1957.82,-209.3 1947.82,-212.8 1957.82,-216.3 1957.82,-209.3"/>
</g>
<!-- SRService  -->
<g id="node25" class="node">
<title>SRService </title>
<polygon fill="#fb8072" stroke="black" points="2313.1,-236.8 2234.9,-236.8 2234.9,-200.8 2313.1,-200.8 2313.1,-236.8"/>
<text text-anchor="middle" x="2274" y="-214.6" font-family="Times,serif" font-size="14.00">SRService </text>
</g>
<!-- SRModule&#45;&gt;SRService  -->
<g id="edge26" class="edge">
<title>SRModule&#45;&gt;SRService </title>
<path fill="none" stroke="black" stroke-dasharray="5,2" d="M2067.28,-142.8C2136.19,-142.8 2274,-142.8 2274,-142.8 2274,-142.8 2274,-190.79 2274,-190.79"/>
<polygon fill="black" stroke="black" points="2270.5,-190.79 2274,-200.79 2277.5,-190.79 2270.5,-190.79"/>
</g>
<!-- RecordsService  -->
<g id="node23" class="node">
<title>RecordsService </title>
<polygon fill="#fb8072" stroke="black" points="1948.86,-304.8 1841.14,-304.8 1841.14,-268.8 1948.86,-268.8 1948.86,-304.8"/>
<text text-anchor="middle" x="1895" y="-282.6" font-family="Times,serif" font-size="14.00">RecordsService </text>
</g>
<!-- RecordsModule&#45;&gt;RecordsService  -->
<g id="edge24" class="edge">
<title>RecordsModule&#45;&gt;RecordsService </title>
<path fill="none" stroke="black" stroke-dasharray="5,2" d="M1895,-237.02C1895,-237.02 1895,-258.53 1895,-258.53"/>
<polygon fill="black" stroke="black" points="1891.5,-258.53 1895,-268.53 1898.5,-258.53 1891.5,-258.53"/>
</g>
<!-- RecordsService -->
<g id="node24" class="node">
<title>RecordsService</title>
<ellipse fill="#fdb462" stroke="black" cx="1895" cy="-142.8" rx="71.78" ry="18"/>
<text text-anchor="middle" x="1895" y="-138.6" font-family="Times,serif" font-size="14.00">RecordsService</text>
</g>
<!-- RecordsService&#45;&gt;RecordsModule -->
<g id="edge25" class="edge">
<title>RecordsService&#45;&gt;RecordsModule</title>
<path fill="none" stroke="black" d="M1895,-160.81C1895,-160.81 1895,-190.65 1895,-190.65"/>
<polygon fill="black" stroke="black" points="1891.5,-190.65 1895,-200.65 1898.5,-190.65 1891.5,-190.65"/>
</g>
<!-- SRService -->
<g id="node26" class="node">
<title>SRService</title>
<ellipse fill="#fdb462" stroke="black" cx="2159" cy="-218.8" rx="51.61" ry="18"/>
<text text-anchor="middle" x="2159" y="-214.6" font-family="Times,serif" font-size="14.00">SRService</text>
</g>
<!-- SRService&#45;&gt;SRModule -->
<g id="edge27" class="edge">
<title>SRService&#45;&gt;SRModule</title>
<path fill="none" stroke="black" d="M2109.97,-224.8C2077.85,-224.8 2041.78,-224.8 2041.78,-224.8 2041.78,-224.8 2041.78,-171 2041.78,-171"/>
<polygon fill="black" stroke="black" points="2045.28,-171 2041.78,-161 2038.28,-171 2045.28,-171"/>
</g>
<!-- UsersService -->
<g id="node28" class="node">
<title>UsersService</title>
<ellipse fill="#fdb462" stroke="black" cx="218" cy="-142.8" rx="61.97" ry="18"/>
<text text-anchor="middle" x="218" y="-138.6" font-family="Times,serif" font-size="14.00">UsersService</text>
</g>
<!-- UsersService&#45;&gt;UsersModule -->
<g id="edge29" class="edge">
<title>UsersService&#45;&gt;UsersModule</title>
<path fill="none" stroke="black" d="M218,-124.77C218,-104.03 218,-72.8 218,-72.8 218,-72.8 126.02,-72.8 126.02,-72.8"/>
<polygon fill="black" stroke="black" points="126.02,-69.3 116.02,-72.8 126.02,-76.3 126.02,-69.3"/>
</g>
<!-- WebRTCService -->
<g id="node30" class="node">
<title>WebRTCService</title>
<ellipse fill="#fdb462" stroke="black" cx="1258" cy="-218.8" rx="77.01" ry="18"/>
<text text-anchor="middle" x="1258" y="-214.6" font-family="Times,serif" font-size="14.00">WebRTCService</text>
</g>
<!-- WebRTCService&#45;&gt;WebRTCModule -->
<g id="edge31" class="edge">
<title>WebRTCService&#45;&gt;WebRTCModule</title>
<path fill="none" stroke="black" d="M1258,-200.77C1258,-193.95 1258,-187.8 1258,-187.8 1258,-187.8 729,-187.8 729,-187.8 729,-187.8 729,-170.84 729,-170.84"/>
<polygon fill="black" stroke="black" points="732.5,-170.84 729,-160.84 725.5,-170.84 732.5,-170.84"/>
</g>
</g>
</svg>
